<?xml version="1.0" standalone="no"?>
<!DOCTYPE svg PUBLIC "-//W3C//DTD SVG 20010904//EN"
 "http://www.w3.org/TR/2001/REC-SVG-20010904/DTD/svg10.dtd">
<svg version="1.0" xmlns="http://www.w3.org/2000/svg"
 width="381.000000pt" height="296.000000pt" viewBox="0 0 381.000000 296.000000"
 preserveAspectRatio="xMidYMid meet">
<metadata>
Created by potrace 1.16, written by Peter Selinger 2001-2019
</metadata>
<g transform="translate(0.000000,296.000000) scale(0.100000,-0.100000)"
fill="#000000" stroke="none">
<path d="M0 1480 l0 -1480 1905 0 1905 0 0 1480 0 1480 -1905 0 -1905 0 0
-1480z m2215 1302 c343 -87 620 -277 804 -551 163 -245 234 -479 235 -776 1
-223 -37 -384 -136 -585 -90 -182 -277 -401 -433 -507 -155 -105 -356 -185
-545 -219 -139 -25 -355 -22 -490 6 -453 95 -837 421 -991 842 -225 613 -4
1266 547 1620 123 79 314 153 472 183 115 22 430 14 537 -13z"/>
<path d="M1714 2564 c-320 -53 -582 -220 -765 -486 -110 -160 -161 -306 -179
-508 -47 -543 291 -1032 825 -1196 85 -26 101 -28 285 -29 232 0 286 12 476
104 245 119 421 288 534 511 85 170 120 316 120 509 0 192 -33 335 -114 498
-71 141 -245 330 -394 430 -229 151 -517 213 -788 167z m221 -648 c14 -21 16
-52 13 -196 -3 -156 -5 -173 -22 -186 -26 -18 -60 -18 -76 1 -17 20 -9 349 9
383 16 30 56 29 76 -2z m-205 -219 c14 -26 13 -30 -22 -95 -49 -90 -61 -146
-47 -213 15 -67 71 -131 136 -153 68 -23 160 -21 203 5 79 48 107 90 120 180
10 72 1 116 -39 175 -36 55 -39 86 -11 114 19 19 23 19 49 5 77 -39 126 -144
126 -270 0 -66 -5 -90 -26 -136 -38 -80 -91 -134 -168 -171 -59 -29 -75 -32
-156 -32 -78 1 -98 4 -148 28 -74 37 -127 89 -163 162 -24 49 -30 74 -32 149
-4 110 19 185 78 246 45 47 76 49 100 6z"/>
</g>
</svg>
